<?xml version="1.0" encoding="utf-8"?>
<!-- Generator: Adobe Illustrator 16.0.0, SVG Export Plug-In . SVG Version: 6.00 Build 0)  -->
<!DOCTYPE svg PUBLIC "-//W3C//DTD SVG 1.1//EN" "http://www.w3.org/Graphics/SVG/1.1/DTD/svg11.dtd">
<svg version="1.1" xmlns="http://www.w3.org/2000/svg" xmlns:xlink="http://www.w3.org/1999/xlink" x="0px" y="0px" width="500px"
	 height="500px" viewBox="0 0 500 500" enable-background="new 0 0 500 500" xml:space="preserve">
<g id="bg">
	<linearGradient id="SVGID_1_" gradientUnits="userSpaceOnUse" x1="249.9995" y1="94.3062" x2="249.9995" y2="379.6299">
		<stop  offset="0" style="stop-color:#E90000"/>
		<stop  offset="1" style="stop-color:#A80000"/>
	</linearGradient>
	<rect fill="url(#SVGID_1_)" width="500" height="500"/>
</g>
<g id="logo_x5F_white">
	<g>
		<linearGradient id="SVGID_2_" gradientUnits="userSpaceOnUse" x1="119.6729" y1="279.5518" x2="144.3117" y2="279.5518">
			<stop  offset="0" style="stop-color:#FFFFFF"/>
			<stop  offset="1" style="stop-color:#FFFFFF;stop-opacity:0"/>
		</linearGradient>
		<path fill="url(#SVGID_2_)" d="M46.54,264.873c0.542,11.586,22.989,22.049,57.848,26.668c8.375,1.275,14.039,1.6,23.43,2.135
			c4.255,0.244,16.494,0.707,16.494,0.707l0.117-2.6c0,0-14.262-0.604-18.503-0.781c-5.896-0.254-10.157-0.436-17.279-1.465
			c-38.545-4.758-58.724-16.113-59.13-24.816L46.54,264.873z"/>
		<g>
			<path fill="#FFFFFF" d="M453.449,238.47c-0.51-10.992-21.792-18.852-63.256-23.375c-20.027-2.188-43.594-3.298-70.049-3.298l0,0
				c-22.947,0-47.503,0.838-72.97,2.491c-44.209,2.873-89.572,8.89-127.737,16.946c-3.135,0.661-6.186,1.452-9.133,2.215
				c-1.665,0.432-3.309,0.858-4.937,1.253c-27.171,6.573-59.43,17.144-58.827,30.171l2.976-0.152
				c-0.39-8.377,20.748-18.549,56.541-27.213c2.754-0.665,5.557-1.207,8.522-1.779c1.84-0.357,3.703-0.718,5.582-1.115
				c33.513-7.072,77.519-12.517,127.258-15.745c22.885-1.487,45.526-2.241,67.292-2.241c27.832,0,52.989,1.208,74.769,3.586
				c41.404,4.526,56.457,12.685,56.741,18.761L453.449,238.47z"/>
		</g>
		<g>
			<path fill="#FFFFFF" d="M201.369,185.872h-94.961L63.937,356.123h95.734l6.478-26.467h-63.723l12.236-48.846h54.493l6.588-26.23
				h-54.724l10.498-42.239h63.02L201.369,185.872L201.369,185.872z"/>
		</g>
		<g>
			<path fill="#FFFFFF" d="M191.864,143.877L191.864,143.877c-3.827,0.002-7.543,2.054-14.293,5.778l-0.58,0.319l-33.589,20.119
				l-4.658,2.793l5.405,0.511l7.271,0.688l0.351,0.036l0.341-0.106l38.304-11.817c4.437-1.101,8.864-2.596,10.173-7.451
				c0.562-2.056,0.21-4.419-0.968-6.475c-1.162-2.032-2.958-3.464-5.057-4.031C193.661,143.998,192.778,143.877,191.864,143.877
				L191.864,143.877z"/>
		</g>
		<path fill="#FFFFFF" d="M251.58,295.408c-3.164,0.244-9.191,0.676-16.475,1.172c-1.562,0.111-3.159,0.217-4.824,0.332
			l-9.929,40.02h31.683l10.535-42.447C258.913,294.801,255.264,295.125,251.58,295.408z"/>
		<path fill="#FFFFFF" d="M214.891,166.685l-6.581,26.463h47.72l-1.065,4.291l-21.618,87.12c1.683-0.115,3.286-0.225,4.823-0.332
			c5.516-0.383,10.012-0.703,12.604-0.9c4.995-0.387,9.951-0.812,14.877-1.254l22.062-88.925h44.86l5.521-22.174l1.065-4.289
			H214.891z"/>
		<line fill="#FFFFFF" x1="270.493" y1="281.635" x2="270.493" y2="281.635"/>
		<path fill="#FFFFFF" d="M436.499,166.104c-15.609-9.378-30.543-11.349-40.32-11.349c-16.405,0-30.424,5.439-40.552,15.731
			c-9.023,9.166-14.192,21.809-14.192,34.687c0,15.033,6.604,25.791,14.504,34.386c3.87,4.214,8.045,7.919,11.923,11.336
			c3.591,3.365,7.244,6.787,10.216,10.689c0.797,1.045,1.534,2.123,2.217,3.246c0.178-0.041,0.352-0.082,0.525-0.125
			c3.468-0.803,6.881-1.615,10.155-2.451c7.56-1.926,14.409-3.895,20.584-5.895c-1.677-3.164-3.63-5.998-5.697-8.598
			c-3.038-3.819-6.332-7.133-9.375-10.187l-0.138-0.134l-5.074-4.766c-2.729-2.34-5.504-4.818-8.033-7.483
			c-5.606-5.901-10.01-12.719-10.01-20.963c0-11.495,8.731-23.715,24.925-23.715c5.98,0,17.842,1.716,30.076,13.212l2.218,2.083
			l0.733-2.957l5.978-24.178l0.15-0.614l0.319-1.278L436.499,166.104z"/>
		<path fill="#FFFFFF" d="M415.753,267.689c-6.467,2.133-13.671,4.232-21.712,6.283c-2.301,0.586-4.676,1.162-7.079,1.734
			c-0.876,0.209-1.747,0.42-2.636,0.627c0.131,1.109,0.226,2.248,0.226,3.441c0,13.691-8.72,27.502-28.203,27.502
			c-13.111,0-25.504-5.553-36.844-16.502l-2.221-2.145l-0.746,2.998l-6.565,26.439l-0.312,1.254l1.097,0.688
			c0.998,0.619,2.008,1.215,3.03,1.795c13.21,7.504,28.376,11.465,44.092,11.465c38.816,0,59.128-27.268,59.128-54.199
			C417.008,274.916,416.546,271.15,415.753,267.689z"/>
		
			<linearGradient id="SVGID_3_" gradientUnits="userSpaceOnUse" x1="170.4526" y1="277.5371" x2="339.2094" y2="265.0881" gradientTransform="matrix(0.9999 -0.0122 0.0122 0.9999 0.375 5.9189)">
			<stop  offset="0" style="stop-color:#FFFFFF;stop-opacity:0"/>
			<stop  offset="0.0896" style="stop-color:#FFFFFF;stop-opacity:0.0896"/>
			<stop  offset="1" style="stop-color:#FFFFFF"/>
		</linearGradient>
		<path fill="url(#SVGID_3_)" d="M446.221,238.975c0.221,3.76-10.945,13.837-54.804,25.015
			c-37.262,9.502-87.161,17.004-140.505,21.121c-11.522,0.887-60.257,4.146-71.969,4.695l-0.742,0.031l-1.079,8.762l1.042-0.047
			c11.483-0.533,60.923-3.973,73.279-4.928c37.786-2.916,74.454-7.588,106.055-13.516c12.988-2.428,25.137-5.078,36.102-7.873
			c40.994-10.449,60.572-21.488,59.851-33.766L446.221,238.975z"/>
	</g>
	<g>
	</g>
	<g>
	</g>
	<g>
	</g>
	<g>
	</g>
	<g>
	</g>
	<g>
	</g>
	<g>
	</g>
	<g>
	</g>
	<g>
	</g>
	<g>
	</g>
	<g>
	</g>
	<g>
	</g>
	<g>
	</g>
	<g>
	</g>
	<g>
	</g>
</g>
</svg>
